<?xml version="1.0" encoding="utf-8"?>
<!-- Generator: Adobe Illustrator 22.0.1, SVG Export Plug-In . SVG Version: 6.00 Build 0)  -->
<svg version="1.1" id="Layer_1" xmlns="http://www.w3.org/2000/svg" xmlns:xlink="http://www.w3.org/1999/xlink" x="0px" y="0px"
	 viewBox="0 0 2000 2000" style="enable-background:new 0 0 2000 2000;" xml:space="preserve">
<style type="text/css">
	.st0{fill:#9076FB;stroke:#E6E6E6;stroke-width:70;stroke-miterlimit:10;}
	.st1{fill:#E6E6E6;}
</style>
<polygon class="st0" points="1842.5,1486.4 1842.5,513.6 1000,27.1 157.5,513.6 157.5,1486.4 1000,1972.9 "/>
<polygon class="st1" points="469.5,572.7 798.5,386.3 1140.5,579.9 1140.1,966.5 941.5,1079.4 940.9,1378.2 1197.1,1522.5 
	1449.7,1379.6 1450.8,1076.3 1254.2,963 1254.2,867.2 1530.5,1031.5 1530.5,1425.1 1199.8,1613.7 863.2,1424 863.2,1033 
	1057.6,916.4 1058.7,623.1 803.2,475.4 555.6,613.4 552.2,919.7 748.8,1035.2 748.8,1129.5 472.1,965.6 "/>
<polygon class="st1" points="808,599 653.7,688.2 653.7,866.4 808,955.5 962.4,866.4 962.4,688.2 "/>
<polygon class="st1" points="1194.9,1046.4 1040.5,1135.6 1040.5,1313.8 1194.9,1402.9 1349.2,1313.8 1349.2,1135.6 "/>
</svg>
