<?xml version="1.0" encoding="utf-8"?>
<!-- Generator: Adobe Illustrator 22.0.1, SVG Export Plug-In . SVG Version: 6.00 Build 0)  -->
<svg version="1.1" xmlns="http://www.w3.org/2000/svg" xmlns:xlink="http://www.w3.org/1999/xlink" x="0px" y="0px"
	 viewBox="0 0 200 200" style="enable-background:new 0 0 200 200;" xml:space="preserve">
<style type="text/css">
	.st0{display:none;}
	.st1{display:inline;fill:#77D7FD;}
	.st2{display:inline;fill:#77D7FD;}
	.st3{fill:#77D7FD;}
</style>
<g id="Layer_1" class="st0">
	<path class="st1" d="M129.7,111.9L53,35.2c-6.6-6.6-6.6-17.2,0-23.8l2-2C61.6,3,72.2,3,78.8,9.5l76.6,76.6c6.6,6.6,6.6,17.2,0,23.8
		l-2,2C146.9,118.4,136.2,118.4,129.7,111.9z"/>
	<path class="st1" d="M155.4,110l-76.6,76.6c-6.6,6.6-17.2,6.6-23.8,0l-2-2c-6.6-6.6-6.6-17.2,0-23.8l76.6-76.6
		c6.6-6.6,17.2-6.6,23.8,0l2,2C162,92.8,162,103.5,155.4,110z"/>
</g>
<g id="Layer_2" class="st0">
	<path class="st2" d="M96.3,55.7c-11.8,6-23.6,12-35.5,18c-4.4-2.4-11.7-7.1-18-15.5c-3.5-4.6-8.8-11.7-9.7-22.1
		C33,33.7,31.4,15.8,44.7,6.4c11.6-8.1,25.3-3.5,27.1-2.9C86.7,8.8,92,24,94.1,30.1C97.9,41,97.1,50.6,96.3,55.7z"/>
	<ellipse class="st2" cx="94.6" cy="126.3" rx="92.9" ry="72"/>
	<path class="st2" d="M180.6,111.9c1.3,2.3,2.6,4.7,4,7c2.5-0.5,7.4-1.2,12.1,1.3c0.8,0.4,1.4,0.8,2.1,1.3c-0.1-1.2-0.6-5-3.6-7.8
		C191.5,110.3,185.8,109.6,180.6,111.9z"/>
	<path class="st2" d="M100.4,55.9c10.9,7.6,21.7,15.2,32.6,22.8c4.7-1.8,12.6-5.4,20-12.8c4.1-4.1,10.4-10.4,12.7-20.5
		c0.5-2.3,4.6-19.8-7.3-31c-10.3-9.7-24.6-7-26.4-6.6c-15.5,3.2-22.9,17.4-25.8,23.2C100.9,41.2,100.3,50.8,100.4,55.9z"/>
</g>
<g id="Layer_3">
	<path class="st3" d="M161.3,177.7c-19.3,23.5-54.5,22.2-71.7,3.5c-12.7-13.8-13.7-34.7-4.5-53c-10.4-2.3-20.7-6.9-30.2-13.9
		c-31-22.9-40.7-62.4-21.6-88.3C52.5,0,93.1-2.4,124.1,20.5c26,19.2,37.9,48.1,45.4,67.5C179,115.1,180.9,153.8,161.3,177.7z"/>
</g>
</svg>
