<?xml version="1.0" encoding="utf-8"?>
<!-- Generator: Adobe Illustrator 22.0.1, SVG Export Plug-In . SVG Version: 6.00 Build 0)  -->
<svg version="1.1" id="Layer_1" xmlns="http://www.w3.org/2000/svg" xmlns:xlink="http://www.w3.org/1999/xlink" x="0px" y="0px"
	 viewBox="0 0 3000 3000" style="enable-background:new 0 0 3000 3000;" xml:space="preserve">
<style type="text/css">
	.st0{fill:#E1E1E1;stroke:#FFFFFF;stroke-width:0.5;stroke-miterlimit:10;}
	.st1{fill:#B3B3B3;}
	.st2{fill:#C0C3FD;}
	.st3{fill:#D2DFFD;}
	.st4{fill:#95E0FD;}
	.st5{clip-path:url(#SVGID_2_);fill:#72D2ED;}
	.st6{clip-path:url(#SVGID_4_);fill:#72D2ED;}
	.st7{fill:#86DDFD;}
	.st8{opacity:0.19;fill:none;stroke:#000000;stroke-width:0.25;stroke-miterlimit:10;}
	.st9{fill:#FFFFFF;}
	.st10{fill:#A6A6A6;}
	.st11{fill:#787878;}
	.st12{fill:#77D7FD;}
	.st13{fill:#9DE9FE;}
	.st14{clip-path:url(#SVGID_6_);fill:#B8ECFE;}
	.st15{fill:#1174BA;}
	.st16{fill:#93C3E6;}
	.st17{fill:none;stroke:#1174BA;stroke-width:5;stroke-miterlimit:10;}
	.st18{fill:#666666;}
	.st19{fill:none;stroke:#666666;stroke-width:5;stroke-miterlimit:10;}
	.st20{fill:#BFBFBF;}
	.st21{clip-path:url(#SVGID_8_);fill:#20C0ED;}
	.st22{fill:#1CA7CF;}
	.st23{fill:#9EB9FD;}
	.st24{clip-path:url(#SVGID_10_);fill:#5451FC;}
	.st25{clip-path:url(#SVGID_12_);fill:#5451FC;}
	.st26{fill:#5451FC;}
	.st27{opacity:0.19;fill:none;stroke:#000000;stroke-width:6;stroke-miterlimit:10;}
	.st28{fill:#8E8EE3;}
	.st29{fill:#7A72B8;}
</style>
<path class="st0" d="M1434.1,1143.3H131.5c-3,0-5.4-2.4-5.4-5.4v-939c0-3,2.4-5.4,5.4-5.4h1302.5c3,0,5.4,2.4,5.4,5.4v939
	C1439.5,1140.9,1437.1,1143.3,1434.1,1143.3z"/>
<path class="st1" d="M1489.3,1150.8H85.7c-1.3,0-2.3-1-2.3-2.3v-43.4c0-1.3,1-2.3,2.3-2.3h1403.6c1.3,0,2.3,1,2.3,2.3v43.4
	C1491.6,1149.7,1490.6,1150.8,1489.3,1150.8z"/>
<path class="st2" d="M437.6,509.4L246.9,639.1c-4.7,3.2-11.1,2-14.3-2.7L68.2,394.6c-3.2-4.7-2-11.1,2.7-14.3l190.8-129.7
	c4.7-3.2,11.1-2,14.3,2.7l164.3,241.8C443.6,499.8,442.4,506.3,437.6,509.4z"/>
<path class="st3" d="M549.7,681.8H319.3c-5.8,0-10.5-4.7-10.5-10.5v-292c0-5.8,4.7-10.5,10.5-10.5h230.3c5.8,0,10.5,4.7,10.5,10.5
	v292C560.1,677.2,555.5,681.8,549.7,681.8z"/>
<ellipse class="st4" cx="901.5" cy="624" rx="277.3" ry="215"/>
<g>
	<defs>
		<ellipse id="SVGID_1_" cx="1066.4" cy="655.3" rx="212.2" ry="176.9"/>
	</defs>
	<clipPath id="SVGID_2_">
		<use xlink:href="#SVGID_1_"  style="overflow:visible;"/>
	</clipPath>
	<ellipse class="st5" cx="902.1" cy="624.5" rx="277.3" ry="215"/>
</g>
<g>
	<defs>
		<path id="SVGID_3_" d="M818.5,398.5c-61.8,29.5-98.5,67.8-117.7,91.4c-17.6,21.7-35.8,44.5-44.3,79.6c-10.9,44.8,0.7,82.2,9,108
			c25.7,79.9,81.9,129.5,112.2,152.4c27.7,4.4,55.4,8.8,83.1,13.2c45,2.8,90,5.5,135,8.3c-27.5-3.2-80.4-13.1-133.7-50.6
			c-16.9-11.9-70.2-52.2-99.7-124.7c-10.8-26.5-20.6-50.8-17.3-82.4c5.3-50.8,40.9-84,73.4-113.6c59.3-53.9,125-79.8,174.5-92.8
			C934.9,391.1,876.7,394.8,818.5,398.5z"/>
	</defs>
	<clipPath id="SVGID_4_">
		<use xlink:href="#SVGID_3_"  style="overflow:visible;"/>
	</clipPath>
	<ellipse class="st6" cx="902.1" cy="624.5" rx="277.3" ry="215"/>
</g>
<rect x="770.5" y="372.5" transform="matrix(-0.9907 0.1364 -0.1364 -0.9907 1602.6188 665.4755)" class="st7" width="16" height="30.2"/>
<rect x="865.4" y="359.5" transform="matrix(-0.9907 0.1364 -0.1364 -0.9907 1789.6019 626.5599)" class="st7" width="16" height="30.2"/>
<path class="st7" d="M924.2,362.6l-196,27l-8.5-62c-7.5-54.1,30.4-104.1,84.5-111.5l0,0c54.1-7.5,104.1,30.4,111.5,84.5L924.2,362.6
	z"/>
<rect x="994.6" y="369.8" transform="matrix(-0.9124 -0.4093 0.4093 -0.9124 1759.7897 1146.5416)" class="st7" width="16" height="30.2"/>
<rect x="1082" y="409" transform="matrix(-0.9124 -0.4093 0.4093 -0.9124 1910.7631 1257.2206)" class="st7" width="16" height="30.2"/>
<path class="st7" d="M1139.5,440.9l-180.5-81l25.6-57.1c22.4-49.9,80.9-72.1,130.8-49.8l0,0c49.9,22.4,72.1,80.9,49.8,130.8
	L1139.5,440.9z"/>
<ellipse class="st7" cx="1208.6" cy="963.6" rx="121.2" ry="92.5"/>
<path class="st7" d="M1176.7,851.8l-68.1,21l-6.6-21.6c-5.8-18.8,4.8-38.8,23.6-44.6l0,0c18.8-5.8,38.8,4.8,44.6,23.6L1176.7,851.8z
	"/>
<path class="st7" d="M1306.3,874.9l-68.9-18.3l5.8-21.8c5.1-19,24.6-30.4,43.6-25.3l0,0c19,5.1,30.4,24.6,25.3,43.6L1306.3,874.9z"
	/>
<path class="st7" d="M967.5,1029.1l-196,27l-8.5-62c-7.5-54.1,30.4-104.1,84.5-111.5l0,0c54.1-7.5,104.1,30.4,111.5,84.5
	L967.5,1029.1z"/>
<line class="st8" x1="830.2" y1="886.5" x2="854.1" y2="1044.7"/>
<line class="st8" x1="960.3" y1="976.4" x2="846.6" y2="992"/>
<circle class="st9" cx="813.4" cy="913.1" r="5.3"/>
<circle class="st9" cx="784.8" cy="963.6" r="5.3"/>
<circle class="st9" cx="787.5" cy="1023.9" r="5.3"/>
<circle class="st9" cx="945.7" cy="1005.8" r="5.3"/>
<circle class="st9" cx="872.2" cy="902.2" r="5.3"/>
<circle class="st9" cx="924.7" cy="932" r="5.3"/>
<path class="st7" d="M612.1,585.5c0.8,10,1.6,19.9,2.3,29.9c-8.9,3.5-25.3,11.7-34.8,29.2c-1.5,2.8-2.7,5.6-3.7,8.3
	c-2.2-4-8.5-16.6-5.1-31.7C575,603.2,591.3,589,612.1,585.5z"/>
<path class="st10" d="M509.8,321.9l-11,19c-0.9,1.6-0.4,3.7,1.2,4.6l0,0c1.6,0.9,3.7,0.4,4.6-1.2l11-19c0.9-1.6,0.4-3.7-1.2-4.6l0,0
	C512.8,319.7,510.8,320.2,509.8,321.9z"/>
<path class="st10" d="M546.6,284.6l-16.8,14.1c-1.4,1.2-1.6,3.3-0.4,4.8l0,0c1.2,1.4,3.3,1.6,4.8,0.4l16.8-14.1
	c1.4-1.2,1.6-3.3,0.4-4.8v0C550.2,283.5,548,283.4,546.6,284.6z"/>
<path class="st10" d="M597.8,270.7l-21.6,3.8c-1.8,0.3-3.1,2.1-2.7,3.9v0c0.3,1.8,2.1,3.1,3.9,2.7l21.6-3.8c1.8-0.3,3.1-2.1,2.7-3.9
	v0C601.4,271.6,599.7,270.4,597.8,270.7z"/>
<path class="st10" d="M651.9,276.2l-21.5-4c-1.8-0.3-3.6,0.9-4,2.7l0,0c-0.3,1.8,0.9,3.6,2.7,4l21.5,4c1.8,0.3,3.6-0.9,4-2.7l0,0
	C655,278.3,653.8,276.6,651.9,276.2z"/>
<path class="st10" d="M670.3,263.4l17.1,26.3c1,1.6,3.1,2,4.7,1l0,0c1.6-1,2-3.1,1-4.7L676,259.7c-1-1.6-3.1-2-4.7-1l0,0
	C669.7,259.7,669.3,261.8,670.3,263.4z"/>
<path class="st10" d="M665.8,307.7l26.3-17.1c1.6-1,2-3.1,1-4.7l0,0c-1-1.6-3.1-2-4.7-1L662.1,302c-1.6,1-2,3.1-1,4.7l0,0
	C662.1,308.3,664.2,308.7,665.8,307.7z"/>
<path class="st10" d="M1299.3,248.8l19,10.8c1.6,0.9,2.2,3,1.3,4.6l0,0c-0.9,1.6-3,2.2-4.6,1.3l-19-10.8c-1.6-0.9-2.2-3-1.3-4.6v0
	C1295.6,248.5,1297.7,247.9,1299.3,248.8z"/>
<path class="st10" d="M1259,240.6h21.9c1.9,0,3.4,1.5,3.4,3.4v0c0,1.9-1.5,3.4-3.4,3.4H1259c-1.9,0-3.4-1.5-3.4-3.4l0,0
	C1255.6,242.1,1257.1,240.6,1259,240.6z"/>
<path class="st10" d="M1217.3,253.2l20-8.9c1.7-0.8,3.7,0,4.5,1.7v0c0.8,1.7,0,3.7-1.7,4.5l-20,8.9c-1.7,0.8-3.7,0-4.5-1.7l0,0
	C1214.8,256,1215.6,254,1217.3,253.2z"/>
<path class="st10" d="M1195.1,245.8l-1.5,31.3c-0.1,1.9-1.7,3.3-3.5,3.2l0,0c-1.9-0.1-3.3-1.7-3.2-3.5l1.5-31.3
	c0.1-1.9,1.7-3.3,3.5-3.2l0,0C1193.8,242.3,1195.2,243.9,1195.1,245.8z"/>
<path class="st10" d="M1221.4,281.8l-31.3-1.5c-1.9-0.1-3.3-1.7-3.2-3.5l0,0c0.1-1.9,1.7-3.3,3.5-3.2l31.3,1.5
	c1.9,0.1,3.3,1.7,3.2,3.5v0C1224.8,280.4,1223.3,281.9,1221.4,281.8z"/>
<path class="st10" d="M1240.6,581.9l-18.2-12.2c-1.6-1-3.7-0.6-4.7,0.9l0,0c-1,1.6-0.6,3.7,0.9,4.7l18.2,12.2c1.6,1,3.7,0.6,4.7-0.9
	v0C1242.6,585.1,1242.2,583,1240.6,581.9z"/>
<path class="st10" d="M1275.4,621.1l-12.9-17.7c-1.1-1.5-3.2-1.8-4.7-0.7l0,0c-1.5,1.1-1.8,3.2-0.7,4.7l12.9,17.7
	c1.1,1.5,3.2,1.8,4.7,0.7l0,0C1276.2,624.7,1276.5,622.6,1275.4,621.1z"/>
<path class="st10" d="M1285.8,673.1l-2.4-21.8c-0.2-1.9-1.9-3.2-3.7-3l0,0c-1.9,0.2-3.2,1.9-3,3.7l2.4,21.8c0.2,1.9,1.9,3.2,3.7,3
	l0,0C1284.7,676.6,1286,675,1285.8,673.1z"/>
<path class="st10" d="M1276.8,726.7l5.4-21.2c0.5-1.8-0.6-3.7-2.5-4.1l0,0c-1.8-0.5-3.7,0.6-4.1,2.5l-5.4,21.2
	c-0.5,1.8,0.6,3.7,2.5,4.1l0,0C1274.5,729.6,1276.3,728.5,1276.8,726.7z"/>
<path class="st10" d="M1288.4,745.9l-27.3,15.3c-1.6,0.9-2.2,3-1.3,4.6l0,0c0.9,1.6,3,2.2,4.6,1.3l27.3-15.3c1.6-0.9,2.2-3,1.3-4.6
	l0,0C1292.1,745.6,1290,745,1288.4,745.9z"/>
<path class="st10" d="M1244.5,738.5l15.3,27.3c0.9,1.6,3,2.2,4.6,1.3l0,0c1.6-0.9,2.2-3,1.3-4.6l-15.3-27.3c-0.9-1.6-3-2.2-4.6-1.3
	l0,0C1244.1,734.8,1243.6,736.9,1244.5,738.5z"/>
<path class="st10" d="M162,608.8l8-20.4c0.7-1.7,2.6-2.6,4.4-1.9l0,0c1.7,0.7,2.6,2.6,1.9,4.4l-8,20.4c-0.7,1.7-2.6,2.6-4.4,1.9l0,0
	C162.2,612.6,161.3,610.6,162,608.8z"/>
<path class="st10" d="M155.8,660.9l0.5-21.9c0-1.9,1.6-3.4,3.5-3.3l0,0c1.9,0,3.4,1.6,3.3,3.5l-0.5,21.9c0,1.9-1.6,3.4-3.5,3.3h0
	C157.3,664.3,155.8,662.7,155.8,660.9z"/>
<path class="st10" d="M177.1,709.5l-10.5-19.2c-0.9-1.6-0.3-3.7,1.3-4.6l0,0c1.6-0.9,3.7-0.3,4.6,1.3l10.5,19.2
	c0.9,1.6,0.3,3.7-1.3,4.6l0,0C180.1,711.7,178,711.1,177.1,709.5z"/>
<path class="st10" d="M215.2,748.3l-16.6-14.3c-1.4-1.2-1.6-3.4-0.4-4.8l0,0c1.2-1.4,3.4-1.6,4.8-0.4l16.6,14.3
	c1.4,1.2,1.6,3.4,0.4,4.8l0,0C218.8,749.3,216.6,749.5,215.2,748.3z"/>
<path class="st10" d="M216.7,770.6l31.2-3.1c1.9-0.2,3.5,1.2,3.7,3l0,0c0.2,1.9-1.2,3.5-3,3.7l-31.2,3.1c-1.9,0.2-3.5-1.2-3.7-3l0,0
	C213.5,772.5,214.8,770.8,216.7,770.6z"/>
<path class="st10" d="M248.5,739.4l3.1,31.2c0.2,1.9-1.2,3.5-3,3.7l0,0c-1.9,0.2-3.5-1.2-3.7-3l-3.1-31.2c-0.2-1.9,1.2-3.5,3-3.7
	l0,0C246.6,736.2,248.3,737.6,248.5,739.4z"/>
<path class="st10" d="M999.3,930.4l-21.7,2.7c-1.9,0.2-3.6-1.1-3.8-2.9v0c-0.2-1.9,1.1-3.6,2.9-3.8l21.7-2.7
	c1.9-0.2,3.6,1.1,3.8,2.9l0,0C1002.5,928.4,1001.2,930.1,999.3,930.4z"/>
<path class="st10" d="M1039.1,912.6l-18.7,11.4c-1.6,1-3.7,0.5-4.7-1.1l0,0c-1-1.6-0.5-3.7,1.1-4.7l18.7-11.4c1.6-1,3.7-0.5,4.7,1.1
	l0,0C1041.2,909.6,1040.7,911.7,1039.1,912.6z"/>
<path class="st10" d="M1062,917.2l-2.5-31.2c-0.1-1.9,1.2-3.5,3.1-3.6l0,0c1.9-0.1,3.5,1.2,3.6,3.1l2.5,31.2
	c0.1,1.9-1.2,3.5-3.1,3.6l0,0C1063.8,920.5,1062.2,919.1,1062,917.2z"/>
<path class="st10" d="M1031.5,884.8l31.2-2.5c1.9-0.1,3.5,1.2,3.6,3.1l0,0c0.1,1.9-1.2,3.5-3.1,3.6l-31.2,2.5
	c-1.9,0.1-3.5-1.2-3.6-3.1v0C1028.2,886.6,1029.6,885,1031.5,884.8z"/>
<path class="st11" d="M1364.2,337h-150.4c-3.2,0-5.8,2.6-5.8,5.8l0,0c0,3.2,2.6,5.8,5.8,5.8h150.4c3.2,0,5.8-2.6,5.8-5.8l0,0
	C1370,339.6,1367.4,337,1364.2,337z"/>
<path class="st11" d="M1361.9,297.5h-69.4c-3.2,0-5.8,2.6-5.8,5.8l0,0c0,3.2,2.6,5.8,5.8,5.8h69.4c3.2,0,5.8-2.6,5.8-5.8l0,0
	C1367.6,300.1,1365.1,297.5,1361.9,297.5z"/>
<path class="st11" d="M1353.8,441.3h-150.4c-3.2,0-5.8,2.6-5.8,5.8l0,0c0,3.2,2.6,5.8,5.8,5.8h150.4c3.2,0,5.8-2.6,5.8-5.8l0,0
	C1359.6,443.9,1357,441.3,1353.8,441.3z"/>
<path class="st11" d="M1353.8,472.7h-150.4c-3.2,0-5.8,2.6-5.8,5.8v0c0,3.2,2.6,5.8,5.8,5.8h150.4c3.2,0,5.8-2.6,5.8-5.8l0,0
	C1359.6,475.2,1357,472.7,1353.8,472.7z"/>
<path class="st11" d="M1353.8,506.5h-150.4c-3.2,0-5.8,2.6-5.8,5.8l0,0c0,3.2,2.6,5.8,5.8,5.8h150.4c3.2,0,5.8-2.6,5.8-5.8l0,0
	C1359.6,509,1357,506.5,1353.8,506.5z"/>
<path class="st11" d="M608.7,832.7H204.3c-3.2,0-5.8,2.6-5.8,5.8l0,0c0,3.2,2.6,5.8,5.8,5.8h404.4c3.2,0,5.8-2.6,5.8-5.8l0,0
	C614.5,835.3,611.9,832.7,608.7,832.7z"/>
<path class="st11" d="M608.7,864.1H204.3c-3.2,0-5.8,2.6-5.8,5.8l0,0c0,3.2,2.6,5.8,5.8,5.8h404.4c3.2,0,5.8-2.6,5.8-5.8l0,0
	C614.5,866.7,611.9,864.1,608.7,864.1z"/>
<path class="st11" d="M608.7,897.9H204.3c-3.2,0-5.8,2.6-5.8,5.8l0,0c0,3.2,2.6,5.8,5.8,5.8h404.4c3.2,0,5.8-2.6,5.8-5.8l0,0
	C614.5,900.5,611.9,897.9,608.7,897.9z"/>
<path class="st11" d="M610.7,936.1H206.3c-3.2,0-5.8,2.6-5.8,5.8l0,0c0,3.2,2.6,5.8,5.8,5.8h404.4c3.2,0,5.8-2.6,5.8-5.8l0,0
	C616.5,938.6,613.9,936.1,610.7,936.1z"/>
<path class="st11" d="M610.7,967.4H206.3c-3.2,0-5.8,2.6-5.8,5.8v0c0,3.2,2.6,5.8,5.8,5.8h404.4c3.2,0,5.8-2.6,5.8-5.8l0,0
	C616.5,970,613.9,967.4,610.7,967.4z"/>
<path class="st11" d="M610.7,1001.2H206.3c-3.2,0-5.8,2.6-5.8,5.8v0c0,3.2,2.6,5.8,5.8,5.8h404.4c3.2,0,5.8-2.6,5.8-5.8l0,0
	C616.5,1003.8,613.9,1001.2,610.7,1001.2z"/>
<path class="st12" d="M2522.7,1724.5c0,364.9-236.4,660.8-527.9,660.8c-50.6,0-99.7-9-146-25.6c0.6,4.3,1.1,8.7,1.7,13
	c10.1,5.2,17.4,11.1,23.5,17.4c6.4,6.7,23.3,24.3,24.5,48.9c2.6,53.3-70.5,91.9-81.5,97.8c-44.6,23.5-56.2,9.1-134.5,32.6
	c-65.7,19.8-70.6,33.9-105.9,32.7c-15.4-0.6-76.5-5.6-105.9-57.1c-19.5-34.1-19.1-78,0-110c6.7-11.4,19.9-28.1,65.2-48.9
	c9-4.2,17.9-7.8,26.7-11.1c-3.5-1.7-7-3.4-10.4-5.2c-50.6-26-146.6-76.8-220.1-183.4c-34.6-50.3-81.6-118.4-61-191.5
	c14.7-52.3,58.2-86.8,73.3-97.8c6.5-4.7,40-28.3,89.6-36.6c15-2.5,29.7-3.3,43.8-2.8c-7.1-43.1-10.7-87.7-10.7-133.3
	c0-364.9,236.4-660.8,527.8-660.8C2286.3,1063.7,2522.7,1359.6,2522.7,1724.5z"/>
<path class="st12" d="M2291,1019.4c-18.3,30.3-54.6,49.9-107.1,90.2c-92,70.6-187.9,81.3-247,88c-52.9,6-138.6,14.6-235.3-24.3
	c-37.5-15-66.4-33.1-86.2-47.2c-2.2-31.3-4.4-62.5-6.6-93.7c2.7-62,5.5-124,8.3-186c0.2-5.1,0.5-10.2,0.7-15.3
	c-13.7-23.7-38.9-75.1-38.4-144.2c0.3-47.9,12.9-85.8,22.8-108.8c17.8-2.7,42.4-4.5,71-0.4c29.6,4.3,54.1,13.5,72.7,22.8
	c36.6-28,80.6-48.4,131.1-56.1c49.9-7.6,96.4-2,138.3,12.6c14.6-13.7,34.5-28.9,59.9-41.2c26-12.5,50-18.2,67.8-21
	c16.3,19,39.7,51.3,54.4,96.9c19.2,59.3,14,111.2,8.5,140.4c2.3,4.9,4.3,9.8,6.2,14.6c3.5,11.6,7.1,23.7,10.8,36.1
	C2245.1,858.9,2269.5,948.7,2291,1019.4z"/>
<path class="st7" d="M2178,866.8c16.8,109.2-39,208.4-124.5,221.6c-36.1,5.6-71.8-5.1-102.1-27.5c-22.2,30.5-53,51.3-89.2,56.9
	c-85.6,13.2-168.6-64.7-185.4-173.9c-16.8-109.1,38.9-208.3,124.5-221.5c36.1-5.6,71.8,5.1,102.1,27.5c22.2-30.6,53-51.4,89.1-57
	C2078.2,679.8,2161.2,757.7,2178,866.8z"/>
<path class="st13" d="M2061.7,951.2c-2.3,27.3-8.6,62.8-25,102c-8.3,19.8-17.7,37.2-27,52c-16.2,6.5-32.4,12.9-48.6,19.4
	c-17.4-1.3-34.7-2.6-52.2-3.9c-13.3-11.4-27.5-25.1-41.4-41.5c-27.4-32.5-44.1-64.4-54.5-89.7c11-10.6,25.8-23,45.1-34.9
	c11.4-7,22.7-12.7,33.2-17.2c0.1,0,0.2-0.1,0.3-0.1c10.8-6.1,22.8-10.5,35.8-12.8c0.2,0,0.2,0,0.4-0.1c0.1,0,0.2,0,0.2,0
	c0.7-0.2,1.4-0.3,2.1-0.4c0.7-0.1,1.4-0.2,2.2-0.3c0.1-0.1,0.1-0.1,0.2-0.1c0.2,0,0.2,0,0.4,0c13.1-1.7,25.9-1.1,38,1.4
	c0.1,0,0.2,0,0.3,0c11.4,1.2,23.8,3.3,36.8,6.5C2030.2,937,2048.1,944.5,2061.7,951.2z"/>
<g>
	<defs>
		
			<ellipse id="SVGID_5_" transform="matrix(0.9884 -0.1521 0.1521 0.9884 -118.868 304.5618)" cx="1931.1" cy="929.2" rx="156" ry="70.3"/>
	</defs>
	<clipPath id="SVGID_6_">
		<use xlink:href="#SVGID_5_"  style="overflow:visible;"/>
	</clipPath>
	<path class="st14" d="M2061.7,951.2c-2.3,27.3-8.6,62.8-25,102c-8.3,19.8-17.7,37.2-27,52c-16.2,6.5-32.4,12.9-48.6,19.4
		c-17.4-1.3-34.7-2.6-52.2-3.9c-13.3-11.4-27.5-25.1-41.4-41.5c-27.4-32.5-44.1-64.4-54.5-89.7c11-10.6,25.8-23,45.1-34.9
		c11.4-7,22.7-12.7,33.2-17.2c0.1,0,0.2-0.1,0.3-0.1c10.8-6.1,22.8-10.5,35.8-12.8c0.2,0,0.2,0,0.4-0.1c0.1,0,0.2,0,0.2,0
		c0.7-0.2,1.4-0.3,2.1-0.4c0.7-0.1,1.4-0.2,2.2-0.3c0.1-0.1,0.1-0.1,0.2-0.1c0.2,0,0.2,0,0.4,0c13.1-1.7,25.9-1.1,38,1.4
		c0.1,0,0.2,0,0.3,0c11.4,1.2,23.8,3.3,36.8,6.5C2030.2,937,2048.1,944.5,2061.7,951.2z"/>
</g>
<ellipse transform="matrix(0.9884 -0.1521 0.1521 0.9884 -124.1335 305.7896)" class="st15" cx="1936.4" cy="964.2" rx="41.6" ry="20.3"/>
<ellipse transform="matrix(0.143 -0.9897 0.9897 0.143 730.9886 2752.4966)" class="st16" cx="1954.9" cy="954.1" rx="4.7" ry="9.9"/>
<path class="st17" d="M1900.7,1043.2c17.5,15.1,26.8,18.6,50.2,15"/>
<path class="st17" d="M1994.3,1028.8c-12.1,19.7-20,25.8-43.4,29.4"/>
<line class="st17" x1="1894.5" y1="1051.6" x2="1906.9" y2="1034.7"/>
<line class="st17" x1="2002.8" y1="1034.9" x2="1985.9" y2="1022.6"/>
<ellipse transform="matrix(0.9681 -0.2504 0.2504 0.9681 -178.6192 482.2717)" class="st18" cx="1806" cy="943.1" rx="16.5" ry="25"/>
<ellipse transform="matrix(0.9986 -5.229600e-02 5.229600e-02 0.9986 -44.5071 108.6835)" class="st18" cx="2054.6" cy="904.8" rx="16.5" ry="25"/>
<path class="st19" d="M1757.5,917.1c9.4-21.1,16.4-28.2,39.1-34.9"/>
<path class="st19" d="M2090.1,865.9c-15.3-17.3-24.1-22-47.8-21.5"/>
<path class="st13" d="M1698.6,645.8c-6.4-5-18.6-13.1-35.9-16.7c-12.7-2.6-23.6-1.9-30.7-0.8c-5,15.8-12.1,47.6,1.3,80.4
	c2.3,5.7,5.1,10.8,7.9,15.4C1660.3,698,1679.5,671.9,1698.6,645.8z"/>
<path class="st13" d="M2071.7,588.4c4.6-6.6,13.8-18.1,29.2-26.7c11.3-6.3,21.9-8.9,29-10c9.5,13.6,25.9,41.8,23,77
	c-0.5,6.1-1.6,11.9-2.9,17.1C2123.9,626.7,2097.8,607.6,2071.7,588.4z"/>
<circle class="st20" cx="2055.2" cy="917.4" r="7.2"/>
<circle class="st20" cx="1808.8" cy="954.1" r="7.2"/>
<g>
	<defs>
		<path id="SVGID_7_" d="M2676.6,2192.5c0,462.1-183,852.6-662.2,852.6s-867.6-374.6-867.6-836.7s527.1-899,825.9-908.1
			C2179.5,1294,2676.6,1730.4,2676.6,2192.5z"/>
	</defs>
	<clipPath id="SVGID_8_">
		<use xlink:href="#SVGID_7_"  style="overflow:visible;"/>
	</clipPath>
	<path class="st21" d="M2522.2,1726c0,364.9-236.4,660.8-527.9,660.8c-50.6,0-99.7-9-146-25.6c0.6,4.3,1.1,8.7,1.7,13
		c10.1,5.2,17.4,11.1,23.5,17.4c6.4,6.7,23.3,24.3,24.5,48.9c2.6,53.3-70.5,91.9-81.5,97.8c-44.6,23.5-56.2,9.1-134.5,32.6
		c-65.7,19.8-70.6,33.9-105.9,32.7c-15.4-0.6-76.5-5.6-105.9-57.1c-19.5-34.1-19.1-78,0-110c6.7-11.4,19.9-28.1,65.2-48.9
		c9-4.2,17.9-7.8,26.7-11.1c-3.5-1.7-7-3.4-10.4-5.2c-50.6-26-146.6-76.8-220.1-183.4c-34.6-50.3-81.6-118.4-61-191.5
		c14.7-52.3,58.2-86.8,73.3-97.8c6.5-4.7,40-28.3,89.6-36.6c15-2.5,29.7-3.3,43.8-2.8c-7.1-43.1-10.7-87.7-10.7-133.3
		c0-364.9,236.4-660.8,527.8-660.8C2285.8,1065.2,2522.2,1361.1,2522.2,1726z"/>
</g>
<path class="st22" d="M1615.9,2095.6c28.1,38.8,59.7,79.3,95.1,120.7c46.8,54.7,93.2,102.9,137.3,145c15.7,4.7,31.4,9.3,47.1,14
	c31.8,6.5,68.1,12.1,108.2,15c46.4,3.4,88.4,2.7,124.7,0c-19.7-74.9-62.7-31.6-82.5-106.5
	C1911.6,2294.8,1818.8,2258.7,1615.9,2095.6z"/>
<ellipse class="st23" cx="2435.8" cy="2283.7" rx="482.9" ry="374.4"/>
<g>
	<defs>
		<ellipse id="SVGID_9_" cx="2722.8" cy="2338.2" rx="369.6" ry="308"/>
	</defs>
	<clipPath id="SVGID_10_">
		<use xlink:href="#SVGID_9_"  style="overflow:visible;"/>
	</clipPath>
	<ellipse class="st24" cx="2436.7" cy="2284.5" rx="482.9" ry="374.4"/>
</g>
<g>
	<defs>
		<path id="SVGID_11_" d="M2291.2,1890.9c-107.6,51.4-171.6,118.1-205,159.2c-30.7,37.8-62.4,77.5-77.2,138.7
			c-18.9,78,1.2,143.1,15.7,188.1c44.8,139.2,142.6,225.5,195.4,265.3c48.2,7.6,96.5,15.3,144.7,22.9c78.4,4.8,156.8,9.6,235.2,14.5
			c-47.9-5.5-140.1-22.9-232.8-88c-29.5-20.7-122.3-90.8-173.7-217.1c-18.7-46.1-36-88.4-30.2-143.5
			c9.3-88.4,71.2-146.4,127.8-197.8c103.2-93.8,217.8-139,303.9-161.6C2493.8,1878.1,2392.5,1884.5,2291.2,1890.9z"/>
	</defs>
	<clipPath id="SVGID_12_">
		<use xlink:href="#SVGID_11_"  style="overflow:visible;"/>
	</clipPath>
	<ellipse class="st25" cx="2436.7" cy="2284.6" rx="482.9" ry="374.4"/>
</g>
<path class="st26" d="M2142.5,1888.8l58.6,17.5c8.4,2.5,13.2,11.4,10.7,19.8v0c-2.5,8.4-11.4,13.2-19.8,10.7l-58.6-17.5
	c-8.4-2.5-13.2-11.4-10.7-19.8l0,0C2125.2,1891.1,2134.1,1886.3,2142.5,1888.8z"/>
<path class="st26" d="M2166.6,1808.1l58.6,17.5c8.4,2.5,13.2,11.4,10.7,19.8h0c-2.5,8.4-11.4,13.2-19.8,10.7l-58.6-17.5
	c-8.4-2.5-13.2-11.4-10.7-19.8l0,0C2149.3,1810.4,2158.2,1805.6,2166.6,1808.1z"/>
<path class="st23" d="M2186.4,1793.3c-16.1,52.8-32.2,105.6-48.3,158.5c-20,6.3-55.2,14.6-98.3,9.3c-23.8-2.9-60.8-7.4-94.6-34.7
	c-7.8-6.3-66-53.3-55.7-120.4c9-58.3,62.6-86.2,69.5-89.6c59-29.5,119.8-1.5,144.3,9.7C2146.9,1746.1,2173.5,1776.3,2186.4,1793.3z"
	/>
<line class="st27" x1="1891.8" y1="1795" x2="2162.6" y2="1871.3"/>
<line class="st27" x1="2063.8" y1="1710.6" x2="2028" y2="1831.2"/>
<path class="st22" d="M1477.7,1857.8c44,10.6,101.7,29.6,163.1,65.3c38.8,22.5,195.1,121.1,220.1,143.1
	c-81.3-79.3-212.2-194.5-184.3-316.3c-70.1-7.9-140.1-15.9-210.2-23.8c-0.1,16.7,0.4,34.5,1.7,53.2
	C1470,1807.7,1473.5,1833.9,1477.7,1857.8z"/>
<path class="st12" d="M2238.1,1139.9c86.2,63.7,157.7,122.9,213.9,172.1c80.7,70.7,151.1,139.4,199.6,236.3
	c12.7,25.4,17.4,39.7,20.4,53c18.7,83.8-24,158.8-61.1,224.1c-17.8,31.3-45.1,73.3-85.6,118.2c48.9,10.3,83.4,48.2,85.6,89.6
	c1.3,24.6-7.8,52.8-28.5,69.3c-59.7,47.3-189.1-20.4-232.2-85.6c-13.1-19.8-15.6-35.3-16.3-40.7c-4.2-33,13.5-55.4,28.5-85.6
	c26.2-52.7,29.9-100.5,32.6-134.5c3-38.3,6.4-81.2-16.3-122.2c-19.2-34.6-86.5-205.2-114.8-231.5l-35.9-70
	C2223.3,1287.4,2221.5,1220.4,2238.1,1139.9z"/>
<path class="st12" d="M1701.5,1173.3c-56.8,34.1-122.1,84.8-178.5,159.1c-43.3,57-104.4,137.6-101.9,248.5c0,1.8,1.1,39.9,12.2,77.4
	c52,176,300.5,258.2,334.1,268.9c6.5,6.9,49.9,51.5,118.2,48.9c61-2.3,98.3-40.8,110-53c15.4-15.9,31.5-32.5,32.6-57
	c2-44.2-46.3-73.5-53-77.4c-8.9-5.2-42.5-25-81.5-12.2c-24.5,8-38.9,24.8-44.8,32.6c-20.8-21.3-51-53.2-85.6-93.7
	c-97.1-113.9-104.1-149.8-105.9-167.1c-5-47.5,17.2-67.5,36.7-126.3C1712.4,1367.1,1725.7,1285.9,1701.5,1173.3z"/>
<path class="st23" d="M1988.6,2208.9c-6.9,12.1-13.7,24.3-20.6,36.4c-13-2.8-38.5-6.2-62.9,6.6c-4,2.1-7.5,4.4-10.7,6.8
	c0.6-6.4,3.1-25.9,18.8-40.6C1931.9,2200.4,1961.8,2196.7,1988.6,2208.9z"/>
<path class="st28" d="M1272,2500.2c-2,12.8-13,22.7-32.2,33.3c-23.4,12.8-69.3,32.3-143.3,31.2h-0.3
	c-36.8-27.3-73.6-54.8-110.3-82.2c12-13.1,37.9-38,79.1-53c10.4-3.9,46.5-16.1,93.6-10.4c20.3,2.4,51.4,6.6,80.1,29.1
	c4.2,3.2,10.9,8.6,17.2,15.2l16-5.8v33.8C1272.4,2494.3,1272.5,2497.2,1272,2500.2z"/>
<polygon class="st29" points="1096.1,2564.8 985.8,2482.6 985.8,2439.9 1096.1,2522.1 "/>
<path class="st23" d="M985.8,2439.9c36.8,27.4,73.5,54.8,110.3,82.2c74.2,1.2,120.3-18.4,143.6-31.2c19.2-10.6,30.2-20.4,32.3-33.3
	c3.6-22.9-23-43.9-33.3-52c-28.7-22.6-59.8-26.7-80.1-29.1c-47-5.6-83.2,6.6-93.7,10.4C1023.7,2401.9,997.8,2426.7,985.8,2439.9z"/>
<line class="st27" x1="1042.2" y1="2525.7" x2="1039.1" y2="2482.7"/>
<path class="st26" d="M1013.6,2507.8l-56.9,22.4c-8.2,3.2-17.4-0.8-20.6-9v0c-3.2-8.2,0.8-17.4,9-20.6l56.9-22.4
	c8.2-3.2,17.4,0.8,20.6,9l0,0C1025.8,2495.3,1021.8,2504.6,1013.6,2507.8z"/>
<path class="st26" d="M1060.1,2537.8l-56.9,22.4c-8.2,3.2-17.4-0.8-20.6-9l0,0c-3.2-8.2,0.8-17.4,9-20.6l56.9-22.4
	c8.2-3.2,17.4,0.8,20.6,9h0C1072.3,2525.3,1068.3,2534.5,1060.1,2537.8z"/>
<line class="st27" x1="1233.9" y1="2405.6" x2="1038.6" y2="2479"/>
<line class="st27" x1="1220.1" y1="2500.5" x2="1139.7" y2="2439.9"/>
<line class="st27" x1="1221.7" y1="2542.4" x2="1218.7" y2="2499.4"/>
<circle class="st23" cx="2807.5" cy="2366" r="23.9"/>
<circle class="st23" cx="2570" cy="2366" r="23.9"/>
<path class="st23" d="M2688.8,2429L2688.8,2429c-29.5,0-53.4-23.9-53.4-53.4v0h106.8v0C2742.2,2405.1,2718.2,2429,2688.8,2429z"/>
<path class="st15" d="M1605.2,2425.4c-28.9-9.9-60.7,0.4-77.3,24.6c-15.4,22.5-14.8,52.6,0,73.7c22,31.4,63.7,26.3,73.7,24.6
	c18.4-3.1,31.6-12,38.6-17.6C1628.6,2495.6,1616.9,2460.5,1605.2,2425.4z"/>
<path class="st7" d="M1109.5,1944.6"/>
<path class="st22" d="M1559.4,2377.5c26.9-8,63.7-17.9,102.9-20.9c25.9-1.9,49.4-1.5,69.9,0c-84.7-9.1-169.4-18.2-254.2-27.3
	C1500.6,2345.5,1531.3,2362.3,1559.4,2377.5z"/>
</svg>
