<?xml version="1.0" encoding="utf-8"?>
<!-- Generator: Adobe Illustrator 22.0.1, SVG Export Plug-In . SVG Version: 6.00 Build 0)  -->
<svg version="1.1" id="Layer_1" xmlns="http://www.w3.org/2000/svg" xmlns:xlink="http://www.w3.org/1999/xlink" x="0px" y="0px"
	 viewBox="0 0 500 200" style="enable-background:new 0 0 500 200;" xml:space="preserve">
<style type="text/css">
	.st0{fill:#D9D9D9;}
</style>
<path class="st0" d="M11.4,105.8l6,12.2c0.5,1,1.8,1.5,2.8,1h0c1-0.5,1.5-1.8,1-2.8l-6-12.2c-0.5-1-1.8-1.5-2.8-1h0
	C11.3,103.5,10.8,104.7,11.4,105.8z"/>
<path class="st0" d="M4.9,74l1.4,13.5c0.1,1.2,1.2,2,2.3,1.9h0c1.2-0.1,2-1.2,1.9-2.3L9,73.6c-0.1-1.2-1.2-2-2.3-1.9h0
	C5.6,71.9,4.7,72.9,4.9,74z"/>
<path class="st0" d="M15.4,43L9.9,55.4c-0.5,1.1,0,2.3,1.1,2.8h0c1.1,0.5,2.3,0,2.8-1.1l5.5-12.4c0.5-1.1,0-2.3-1.1-2.8h0
	C17.1,41.4,15.9,41.9,15.4,43z"/>
<path class="st0" d="M36.9,17.1l-9.5,9.7c-0.8,0.8-0.8,2.2,0,3l0,0c0.8,0.8,2.2,0.8,3,0l9.5-9.7c0.8-0.8,0.8-2.2,0-3l0,0
	C39,16.3,37.7,16.3,36.9,17.1z"/>
<path class="st0" d="M44.7,136.3l-11.3-7.5c-1-0.6-2.3-0.4-2.9,0.6h0c-0.6,1-0.4,2.3,0.6,2.9l11.3,7.5c1,0.6,2.3,0.4,2.9-0.6l0,0
	C46,138.2,45.7,136.9,44.7,136.3z"/>
<path class="st0" d="M79.3,143.6l-13.4-2.1c-1.1-0.2-2.2,0.6-2.4,1.7v0c-0.2,1.1,0.6,2.2,1.7,2.4l13.4,2.1c1.1,0.2,2.2-0.6,2.4-1.7
	l0,0C81.2,144.9,80.5,143.8,79.3,143.6z"/>
<path class="st0" d="M101,148.2l13.2-3.2c1.1-0.3,1.8-1.4,1.6-2.5l0,0c-0.3-1.1-1.4-1.8-2.5-1.6l-13.2,3.2c-1.1,0.3-1.8,1.4-1.6,2.5
	v0C98.8,147.8,99.9,148.5,101,148.2z"/>
<path class="st0" d="M127.5,118.6l-3,13.2c-0.3,1.1,0.5,2.3,1.6,2.5h0c1.1,0.3,2.3-0.5,2.5-1.6l3-13.2c0.3-1.1-0.5-2.3-1.6-2.5l0,0
	C128.9,116.8,127.8,117.5,127.5,118.6z"/>
<path class="st0" d="M121.4,100.5l-13.2,2.9c-1.1,0.2-1.8,1.4-1.6,2.5l0,0c0.2,1.1,1.4,1.8,2.5,1.6l13.2-2.9
	c1.1-0.2,1.8-1.4,1.6-2.5l0,0C123.7,100.9,122.6,100.2,121.4,100.5z"/>
<path class="st0" d="M94.4,129.5l3.3-13.1c0.3-1.1-0.4-2.3-1.5-2.5h0c-1.1-0.3-2.3,0.4-2.5,1.5l-3.3,13.1c-0.3,1.1,0.4,2.3,1.5,2.5
	h0C93,131.3,94.1,130.7,94.4,129.5z"/>
<path class="st0" d="M90.2,159.8l8.7,10.4c0.7,0.9,2.1,1,3,0.3l0,0c0.9-0.7,1-2.1,0.3-3l-8.7-10.4c-0.7-0.9-2.1-1-3-0.3l0,0
	C89.6,157.6,89.4,158.9,90.2,159.8z"/>
<path class="st0" d="M204.7,151.5l6.7-11.8c0.6-1,0.2-2.3-0.8-2.9l0,0c-1-0.6-2.3-0.2-2.9,0.8l-6.7,11.8c-0.6,1-0.2,2.3,0.8,2.9l0,0
	C202.9,152.9,204.2,152.5,204.7,151.5z"/>
<path class="st0" d="M182.1,174.6l10.3-8.7c0.9-0.7,1-2.1,0.2-3l0,0c-0.7-0.9-2.1-1-3-0.2l-10.3,8.7c-0.9,0.7-1,2.1-0.2,3l0,0
	C179.9,175.3,181.2,175.4,182.1,174.6z"/>
<path class="st0" d="M150.5,183.3l13.3-2.4c1.1-0.2,1.9-1.3,1.7-2.4l0,0c-0.2-1.1-1.3-1.9-2.4-1.7l-13.3,2.4
	c-1.1,0.2-1.9,1.3-1.7,2.4l0,0C148.2,182.7,149.3,183.5,150.5,183.3z"/>
<path class="st0" d="M117,180l13.3,2.4c1.1,0.2,2.2-0.5,2.4-1.7l0,0c0.2-1.1-0.5-2.2-1.7-2.4l-13.3-2.4c-1.1-0.2-2.2,0.5-2.4,1.7
	l0,0C115.1,178.7,115.9,179.8,117,180z"/>
<path class="st0" d="M235.1,114.3l-12.4,5.4c-1.1,0.5-1.5,1.7-1.1,2.8l0,0c0.5,1.1,1.7,1.5,2.8,1.1l12.4-5.4
	c1.1-0.5,1.5-1.7,1.1-2.8l0,0C237.4,114.4,236.1,113.9,235.1,114.3z"/>
<path class="st0" d="M266.1,99.7l-12.9,4.1c-1.1,0.3-1.7,1.5-1.4,2.6l0,0c0.3,1.1,1.5,1.7,2.6,1.4l12.9-4.1c1.1-0.3,1.7-1.5,1.4-2.6
	l0,0C268.4,99.9,267.2,99.3,266.1,99.7z"/>
<path class="st0" d="M298.6,103.9l-13.2-2.9c-1.1-0.2-2.2,0.5-2.5,1.6v0c-0.2,1.1,0.5,2.2,1.6,2.5l13.2,2.9c1.1,0.2,2.2-0.5,2.5-1.6
	v0C300.5,105.3,299.8,104.1,298.6,103.9z"/>
<path class="st0" d="M333.7,112.8l-12.6-4.9c-1.1-0.4-2.3,0.1-2.7,1.2v0c-0.4,1.1,0.1,2.3,1.2,2.7l12.6,4.9c1.1,0.4,2.3-0.1,2.7-1.2
	v0C335.3,114.4,334.8,113.2,333.7,112.8z"/>
<path class="st0" d="M388.5,134.5l13.5,0.9c1.2,0.1,2.2-0.8,2.2-1.9l0,0c0.1-1.2-0.8-2.2-1.9-2.2l-13.5-0.9
	c-1.2-0.1-2.2,0.8-2.2,1.9l0,0C386.5,133.4,387.4,134.4,388.5,134.5z"/>
<path class="st0" d="M352,127l12.4,5.5c1.1,0.5,2.3,0,2.8-1.1l0,0c0.5-1.1,0-2.3-1.1-2.8l-12.4-5.5c-1.1-0.5-2.3,0-2.8,1.1v0
	C350.5,125.3,350.9,126.5,352,127z"/>
<path class="st0" d="M431.6,120.9l-12.2,6c-1,0.5-1.5,1.8-1,2.8l0,0c0.5,1,1.8,1.5,2.8,1l12.2-6c1-0.5,1.5-1.8,1-2.8l0,0
	C433.9,120.8,432.7,120.4,431.6,120.9z"/>
<path class="st0" d="M455.3,94.7l-8.6,10.5c-0.7,0.9-0.6,2.2,0.3,2.9l0,0c0.9,0.7,2.2,0.6,2.9-0.3l8.6-10.5c0.7-0.9,0.6-2.2-0.3-2.9
	l0,0C457.4,93.7,456.1,93.8,455.3,94.7z"/>
<path class="st0" d="M478.2,67.2l-6.2,12c-0.5,1-0.1,2.3,0.9,2.8l0,0c1,0.5,2.3,0.1,2.8-0.9l6.2-12c0.5-1,0.1-2.3-0.9-2.8l0,0
	C480,65.8,478.8,66.2,478.2,67.2z"/>
<path class="st0" d="M490.8,41.2l-5.2,12.5c-0.4,1.1,0.1,2.3,1.1,2.7h0c1.1,0.4,2.3-0.1,2.7-1.1l5.2-12.5c0.4-1.1-0.1-2.3-1.1-2.7
	l0,0C492.4,39.6,491.2,40.1,490.8,41.2z"/>
</svg>
