<?xml version="1.0" encoding="utf-8"?>
<!-- Generator: Adobe Illustrator 22.0.1, SVG Export Plug-In . SVG Version: 6.00 Build 0)  -->
<svg version="1.1" id="Layer_1" xmlns="http://www.w3.org/2000/svg" xmlns:xlink="http://www.w3.org/1999/xlink" x="0px" y="0px"
	 viewBox="0 0 2000 2000" style="enable-background:new 0 0 2000 2000;" xml:space="preserve">
<style type="text/css">
	.st0{fill:#9EB9FD;}
	.st1{opacity:0.19;fill:none;stroke:#000000;stroke-width:6;stroke-miterlimit:10;}
	.st2{clip-path:url(#SVGID_2_);fill:#5451FC;}
	.st3{clip-path:url(#SVGID_4_);fill:#5451FC;}
</style>
<path class="st0" d="M994.8,565.1c-110.7,56.2-221.5,112.4-332.2,168.6c-41.5-22.6-109.6-66.7-168.3-144.8
	c-32.4-43-82.7-110-91.2-207.3c-1.9-22.4-16.5-190,108.5-277.9c108.5-76.3,237.3-32.8,253.6-27.1c139.7,49.6,189.2,191.8,209,249
	C1009.7,427.7,1002.2,517.9,994.8,565.1z"/>
<line class="st1" x1="533" y1="90.3" x2="831.2" y2="648.2"/>
<line class="st1" x1="937.6" y1="237.6" x2="686.6" y2="367.5"/>
<ellipse class="st0" cx="978.4" cy="1227" rx="870.4" ry="674.8"/>
<g>
	<defs>
		<ellipse id="SVGID_1_" cx="461" cy="1325.3" rx="666.3" ry="555.3"/>
	</defs>
	<clipPath id="SVGID_2_">
		<use xlink:href="#SVGID_1_"  style="overflow:visible;"/>
	</clipPath>
	<ellipse class="st2" cx="976.7" cy="1228.6" rx="870.4" ry="674.8"/>
</g>
<g>
	<defs>
		<path id="SVGID_3_" d="M1239,519.1c193.9,92.7,309.3,212.9,369.6,287c55.4,68.1,112.4,139.8,139.1,250
			c34.1,140.6-2.1,257.9-28.3,339.1c-80.8,250.8-257,406.5-352.2,478.3c-87,13.8-173.9,27.5-260.9,41.3
			c-141.3,8.7-282.6,17.4-423.9,26.1c86.3-9.9,252.5-41.2,419.6-158.7c53.1-37.3,220.5-163.7,313-391.3
			c33.8-83.1,64.8-159.4,54.3-258.7C1452.7,972.8,1341,868.4,1239,775.7c-186.1-169.1-392.6-250.5-547.8-291.3
			C873.8,496,1056.4,507.5,1239,519.1z"/>
	</defs>
	<clipPath id="SVGID_4_">
		<use xlink:href="#SVGID_3_"  style="overflow:visible;"/>
	</clipPath>
	<ellipse class="st3" cx="976.7" cy="1228.7" rx="870.4" ry="674.8"/>
</g>
<path class="st0" d="M1784.5,1092.2c12.4,21.9,24.8,43.7,37.1,65.6c23.5-5.1,69.3-11.1,113.5,12c7.1,3.7,13.6,7.9,19.3,12.2
	c-1-11.6-5.6-46.6-33.9-73.2C1886.7,1077,1832.8,1070.3,1784.5,1092.2z"/>
<circle class="st0" cx="308.3" cy="1375.5" r="43"/>
<circle class="st0" cx="736.6" cy="1375.5" r="43"/>
<path class="st0" d="M522.4,1489L522.4,1489c53.2,0,96.3-43.1,96.3-96.3v0H426.2v0C426.2,1445.9,469.3,1489,522.4,1489z"/>
<path class="st0" d="M1033.1,567.5c101.8,71.1,203.6,142.2,305.4,213.4c44.2-16.6,117.8-50.7,186.9-119.9
	c38.1-38.1,97.3-97.3,119.2-192.5c5-21.9,42.9-185.9-68.6-290.3c-96.7-90.7-230.4-65.7-247.3-62.2
	c-145.3,29.6-214.1,163.5-241.8,217.3C1037.6,429.4,1032.5,519.7,1033.1,567.5z"/>
<line class="st1" x1="1556.8" y1="161.9" x2="1183.6" y2="672.6"/>
<line class="st1" x1="1135.6" y1="251.2" x2="1366" y2="414.9"/>
</svg>
