<?xml version="1.0" encoding="utf-8"?>
<!-- Generator: Adobe Illustrator 22.0.1, SVG Export Plug-In . SVG Version: 6.00 Build 0)  -->
<svg version="1.1" id="Layer_1" xmlns="http://www.w3.org/2000/svg" xmlns:xlink="http://www.w3.org/1999/xlink" x="0px" y="0px"
	 viewBox="0 0 4000 1000" style="enable-background:new 0 0 4000 1000;" xml:space="preserve">
<style type="text/css">
	.st0{enable-background:new    ;}
	.st1{fill:#E6E6E6;}
	.st2{fill:#9ED5FD;}
	.st3{fill:none;stroke:#E6E6E6;stroke-width:6;stroke-miterlimit:10;}
	.st4{fill:none;stroke:#E6E6E6;stroke-width:16;stroke-miterlimit:10;}
</style>
<g class="st0">
	<path class="st1" d="M385.5,469v262.9H282V110.7h103.6v264h124.3v-264h103.6v621.2H509.8V469H385.5z"/>
	<path class="st1" d="M833.7,589.2l-25.2,142.7H700.7l116.4-621.2h142.7l114.9,621.2H966.2l-24.5-142.7H833.7z M887.9,253
		l-38.4,244.9h76.8L887.9,253z"/>
	<path class="st1" d="M1310.4,739.7c-45.7,0-84.5-14.4-116.4-43.3c-31.9-28.8-47.8-63.8-47.8-104.9V251.3
		c0-41.1,16.1-76.1,48.2-105.1c32.1-28.9,70.8-43.4,116-43.4c45.7,0,84.4,14.5,116.2,43.6c31.8,29.1,47.6,64,47.6,104.9v70.8h-107.3
		v-72.5c0-15-5.8-27.8-17.5-38.3s-25.8-15.8-42.4-15.8c-16.3,0-30.3,5.3-41.8,15.8c-11.6,10.6-17.3,23.3-17.3,38.3v340.9
		c0,15,5.8,27.7,17.3,38.1c11.5,10.4,25.5,15.7,41.8,15.7c16.6,0,30.7-5.2,42.4-15.7c11.7-10.4,17.5-23.2,17.5-38.1v-85.5h107.3
		v86.5c0,41.3-16.1,76.3-48.2,105.1C1393.9,725.4,1355.4,739.7,1310.4,739.7z"/>
	<path class="st1" d="M1662.5,535.7v196.2H1559V110.7h103.6V332l125.8-221.4H1899l-141.6,254.1l165.7,367.1h-121.6L1693,480.2
		L1662.5,535.7z"/>
</g>
<g class="st0">
	<path class="st1" d="M2116.4,739.7c-45.7,0-84.5-14.5-116.4-43.6c-31.9-29.1-47.8-63.9-47.8-104.6V251.3
		c0-41.1,16.1-76.1,48.2-105.1c32.1-28.9,70.8-43.4,116-43.4c45.7,0,84.4,14.5,116.2,43.6c31.8,29.1,47.6,64,47.6,104.9v70.8h-107.3
		v-72.5c0-15-5.8-27.8-17.5-38.3s-25.8-15.8-42.4-15.8c-16.3,0-30.3,5.3-41.8,15.8c-11.6,10.6-17.3,23.3-17.3,38.3v340.9
		c0,15,5.8,27.7,17.3,38.1c11.5,10.4,25.5,15.7,41.8,15.7c16.6,0,30.7-5.2,42.4-15.7c11.7-10.4,17.5-23.2,17.5-38.1V468.3h-57.6
		v-93.7h164.9v217c0,41.3-16.1,76.3-48.2,105.1C2199.9,725.4,2161.4,739.7,2116.4,739.7z"/>
</g>
<ellipse transform="matrix(0.7554 -0.6553 0.6553 0.7554 -171.6972 204.2572)" class="st1" cx="187.7" cy="332.1" rx="107.6" ry="128.9"/>
<ellipse transform="matrix(0.866 -0.5 0.5 0.866 -212.3435 180.0995)" class="st1" cx="229.9" cy="486.3" rx="101.8" ry="85"/>
<ellipse transform="matrix(0.8228 -0.5683 0.5683 0.8228 428.4105 2234.2153)" class="st1" cx="3797.2" cy="430.1" rx="128.9" ry="107.6"/>
<ellipse transform="matrix(0.7 -0.7141 0.7141 0.7 708.8668 2825.7063)" class="st1" cx="3717.8" cy="569.1" rx="85" ry="101.8"/>
<g class="st0">
	<path class="st2" d="M2685.4,668.3V232.4h206.9v65.7H2758v119.5h98v65.7h-98v119.3h134.2v65.7H2685.4z"/>
	<path class="st2" d="M2942.2,668.3V232.4h206.9v65.7h-134.2v119.5h98v65.7h-98v119.3h134.2v65.7H2942.2z"/>
	<path class="st2" d="M3280.8,232.4l96.2,292.8V232.4h72.7v435.9h-77.8l-100-279.2v279.2h-72.7V232.4H3280.8z"/>
	<path class="st2" d="M3605.3,485.7L3508,232.4h79.8l54,156.5l53.5-156.5h80.3L3678,485.7v182.6h-72.7V485.7z"/>
</g>
<g class="st0">
	<path class="st3" d="M2685.4,668.3V232.4h206.9v65.7H2758v119.5h98v65.7h-98v119.3h134.2v65.7H2685.4z"/>
	<path class="st3" d="M2942.2,668.3V232.4h206.9v65.7h-134.2v119.5h98v65.7h-98v119.3h134.2v65.7H2942.2z"/>
	<path class="st3" d="M3280.8,232.4l96.2,292.8V232.4h72.7v435.9h-77.8l-100-279.2v279.2h-72.7V232.4H3280.8z"/>
	<path class="st3" d="M3605.3,485.7L3508,232.4h79.8l54,156.5l53.5-156.5h80.3L3678,485.7v182.6h-72.7V485.7z"/>
</g>
<g class="st0">
	<path class="st2" d="M2444,204.3h-110v-93.7h323.1v93.7h-109.6v527.6H2444V204.3z"/>
</g>
<g class="st0">
	<path class="st3" d="M2444,204.3h-110v-93.7h323.1v93.7h-109.6v527.6H2444V204.3z"/>
</g>
<rect x="1520.1" y="491.5" transform="matrix(0.3329 -0.943 0.943 0.3329 474.9869 1825.3103)" class="st1" width="14.8" height="170.9"/>
<rect x="1507.9" y="554.4" transform="matrix(0.7783 -0.6279 0.6279 0.7783 -65.7699 1093.4794)" class="st1" width="15.3" height="170.9"/>
<path class="st4" d="M1042,586.7c20.8,12.6,74.9-38.7,121-114.8"/>
<path class="st4" d="M1048.6,721.6c20.8,12.6,61.7-104,107.8-180"/>
<path class="st4" d="M739.1,590.6C723.2,628,662,605.5,604.6,475.1"/>
<path class="st4" d="M611.3,714c20.8,12.6,74.9-38.7,121-114.8"/>
<path class="st4" d="M1860.3,159c-12.7,20.8,38.4,75.1,114.3,121.5"/>
<path class="st4" d="M1799.3,244.4c-12.7,20.8,103.7,62.1,179.6,108.5"/>
<rect x="333.2" y="715.9" class="st1" width="21.4" height="170.9"/>
<rect x="330.5" y="911.9" class="st1" width="5.7" height="29.4"/>
<rect x="351.9" y="911.9" class="st1" width="5.7" height="29.4"/>
<path class="st1" d="M369.2,926.6h-50.6v-25.3c0-14,11.3-25.3,25.3-25.3l0,0c14,0,25.3,11.3,25.3,25.3L369.2,926.6L369.2,926.6z"/>
</svg>
